<svg xmlns="http://www.w3.org/2000/svg" width="215" height="225" viewBox="470 100 215 225" version="1.1" class="active">
    
    <style>
        /* I ADDED A 2-SECOND DELAY TO BOTH ANIMATIONS */
        
        svg .svg-elem-1 {
          stroke-dashoffset: 3377.037109375px;
          stroke-dasharray: 3377.037109375px;
          fill: transparent;
          /* Added '2s' delay to the start of the transition list */
          transition: stroke-dashoffset 2s ease-out 2s,
                      fill 0.7s cubic-bezier(0.47, 0, 0.745, 0.715) 2.6s;
        }

        svg.active .svg-elem-1 {
          stroke-dashoffset: 0;
          fill: rgb(186, 204, 209);
        }

        svg .svg-elem-2 {
          stroke-dashoffset: 1696.779541015625px;
          stroke-dasharray: 1696.779541015625px;
          fill: transparent;
          /* Added '2.1s' delay to the start of the transition list */
          transition: stroke-dashoffset 2s ease-out 2.1s,
                      fill 0.7s cubic-bezier(0.47, 0, 0.745, 0.715) 2.7s;
        }

        svg.active .svg-elem-2 {
          stroke-dashoffset: 0;
          fill: rgb(94, 140, 149);
        }
    </style>

    <!-- Lighter part of the character -->
    <path class="svg-elem-1" stroke="#baccd1" stroke-width="2" fill-rule="evenodd" d="M 553.714 110.077 C 533.841 115.745, 515.169 128.827, 500.562 147.317 C 492.089 158.042, 484.560 176.057, 481.428 193.100 C 479.999 200.872, 479.932 202.922, 481.005 205.891 C 483.020 211.462, 484.633 212.500, 491.273 212.500 C 496.630 212.500, 497.413 212.220, 499.549 209.541 C 501.116 207.576, 502.100 204.721, 502.478 201.041 C 504.189 184.407, 510.412 168.956, 520 157.535 C 533.291 141.704, 549.823 131.558, 567 128.690 L 569.500 128.272 566.960 128.136 C 560.153 127.771, 547.688 132.759, 536.576 140.294 C 517.902 152.956, 503.513 175.973, 501.437 196.500 C 500.610 204.683, 499.246 208.715, 496.701 210.497 C 493.469 212.761, 488.537 212.366, 485.306 209.586 C 482.691 207.336, 482.511 206.696, 482.668 200.198 C 483.063 183.793, 492.552 160.097, 504.786 144.965 C 520.418 125.632, 543.368 111.786, 564.300 109.061 L 570.500 108.254 565.500 108.198 C 562.750 108.167, 557.446 109.013, 553.714 110.077 M 583.772 108.936 C 596.590 111.005, 611.451 122.842, 615.869 134.500 C 620.409 146.482, 619.709 160.068, 613.893 172.897 C 610.187 181.070, 599.305 191.845, 585.410 201.101 C 579.959 204.731, 570.550 210.988, 564.500 215.004 C 542.711 229.470, 529.051 242.893, 519.728 259 C 513.357 270.006, 507.034 291.035, 506.978 301.402 C 506.927 310.926, 500.618 317.989, 492.154 317.996 C 479.743 318.007, 475.612 307.809, 479.572 286.934 C 484.729 259.747, 496.399 237.609, 515.969 217.886 C 528.920 204.833, 540.507 197.016, 566.909 183.520 C 587.825 172.829, 595.214 167.320, 598.927 159.651 C 602.614 152.034, 601.193 142.923, 595.232 135.958 C 590.431 130.349, 585.537 128.116, 576.815 127.557 L 569.500 127.087 576.289 128.043 C 580.024 128.569, 584.805 129.880, 586.914 130.956 C 593.896 134.518, 599.005 142.453, 598.994 149.718 C 598.976 162.397, 592.469 169.059, 568 181.451 C 538.175 196.555, 529.305 202.478, 514.914 216.896 C 501.813 230.021, 497.055 236.523, 489.587 251.500 C 481.768 267.183, 477.108 283.548, 476.346 298 C 475.918 306.116, 476.126 308.010, 477.774 311 C 480.641 316.200, 485.335 319, 491.188 319 C 501.452 319, 507.429 313.048, 508.478 301.783 C 509.817 287.408, 512.759 276.664, 518.824 264 C 519.746 262.075, 520.837 260.350, 521.250 260.167 C 521.663 259.983, 522 259.286, 522 258.617 C 522 256.986, 529.627 246.591, 535.642 240.024 C 543.020 231.970, 554.061 223.441, 576.473 208.481 C 598.083 194.058, 610.834 182.963, 614.397 175.483 C 615.441 173.292, 616.696 170.690, 617.187 169.700 C 618.622 166.805, 620.196 158.988, 620.702 152.240 C 621.076 147.256, 620.607 144.208, 618.402 137.284 C 615.846 129.256, 615.091 128.040, 608.567 121.458 C 600.144 112.960, 592.867 109.058, 584.367 108.482 L 578.500 108.085 583.772 108.936 M 650.133 111.499 C 645.820 115.395, 644.467 119.253, 643.468 130.500 C 641.591 151.645, 632.378 169.899, 613.510 189.858 C 606.928 196.820, 603.372 199.514, 582.430 213.406 C 569.545 221.952, 563.698 226.129, 557.069 231.522 C 552.839 234.963, 541 247.369, 541 248.360 C 541 248.883, 539.948 250.704, 538.662 252.406 C 533.990 258.589, 532.497 264.585, 532.537 277 C 532.572 287.588, 532.804 288.976, 535.464 294.500 C 538.945 301.729, 547.511 310.503, 554.669 314.171 C 560.649 317.236, 569.387 319.413, 573 318.739 C 575.063 318.354, 574.916 318.249, 572.154 318.136 C 562.150 317.729, 548.936 310.655, 542.155 302.077 C 536.152 294.483, 534 287.770, 534 276.641 C 534 265.581, 535.596 260.132, 541.509 251 C 549.183 239.148, 560.032 229.806, 585.040 213.512 C 592.235 208.823, 601.151 202.571, 604.854 199.617 C 617.358 189.639, 629.837 174.502, 636.276 161.500 C 642.033 149.874, 643.891 142.656, 646.559 121.540 C 647.060 117.577, 647.948 115.817, 650.975 112.790 C 654.392 109.373, 655.277 109, 659.978 109 C 666.648 109, 670.457 111.247, 673.123 116.754 C 674.932 120.490, 675.115 122.127, 674.529 129.276 C 673.693 139.468, 670.153 155.103, 667.006 162.500 C 659.409 180.358, 654.330 188.993, 644.783 200.278 C 632.539 214.754, 619.453 225.067, 598.555 236.710 C 593.025 239.791, 583.725 244.981, 577.890 248.243 C 559.603 258.465, 553.273 264.958, 552.287 274.504 C 550.321 293.552, 569.654 304.588, 593.552 298.058 C 606.287 294.579, 620.970 285.417, 630.221 275.178 C 640.778 263.492, 648.976 246.342, 651.499 230.664 C 653.422 218.711, 653.600 218.258, 657.072 216.463 C 662.235 213.793, 667.012 215.397, 669.497 220.636 C 670.974 223.747, 670.948 224.750, 669.148 234.247 C 665.413 253.963, 661.076 264.579, 651.392 277.712 C 635.090 299.822, 612.940 314.222, 589.469 317.970 L 583.500 318.924 589.653 318.487 C 605.569 317.358, 626.462 306.474, 641.739 291.352 C 648.437 284.721, 657.874 271.796, 661.840 263.822 C 665.558 256.345, 667.080 251.441, 671.023 234.236 C 672.845 226.285, 672.293 220.565, 669.427 217.700 C 665.060 213.333, 657.152 212.965, 653.536 216.960 C 651.767 218.915, 649.096 228.604, 649.036 233.282 C 648.964 238.872, 638.147 265, 635.904 265 C 635.481 265, 634.880 265.788, 634.569 266.750 C 633.868 268.920, 624.025 279.250, 617.993 284.146 C 607.501 292.662, 591.277 299.006, 580.020 298.994 C 569.443 298.984, 562.385 295.637, 556.736 287.955 C 553.914 284.118, 553.593 282.971, 553.648 276.918 C 553.705 270.784, 554.041 269.712, 557.311 265.257 C 561.692 259.289, 568.708 254.263, 584.500 245.781 C 604.757 234.901, 608.206 232.896, 616.980 226.909 C 627.007 220.066, 638.838 209.620, 645.048 202.128 C 647.496 199.174, 649.950 196.249, 650.501 195.628 C 655.719 189.745, 665.019 172.623, 668.495 162.500 C 669.439 159.750, 670.573 156.600, 671.014 155.500 C 672.348 152.176, 674.855 140.006, 676.006 131.267 C 678.068 115.611, 672.686 108, 659.553 108 C 654.618 108, 653.578 108.386, 650.133 111.499"></path>
    
    <!-- Darker part of the character -->
    <path class="svg-elem-2" stroke="#5e8c95" stroke-width="2" fill-rule="evenodd" d="M 564.300 109.007 C 543.090 111.951, 520.390 125.666, 504.786 144.965 C 492.552 160.097, 483.063 183.793, 482.668 200.198 C 482.511 206.696, 482.691 207.336, 485.306 209.586 C 488.537 212.366, 493.469 212.761, 496.701 210.497 C 499.246 208.715, 500.610 204.683, 501.437 196.500 C 504.606 165.156, 533.409 133.891, 564.205 128.365 C 578.929 125.724, 588.470 128.059, 595.232 135.958 C 601.193 142.923, 602.614 152.034, 598.927 159.651 C 595.214 167.320, 587.825 172.829, 566.909 183.520 C 540.507 197.016, 528.920 204.833, 515.969 217.886 C 496.399 237.609, 484.729 259.747, 479.572 286.934 C 475.612 307.809, 479.743 318.007, 492.154 317.996 C 500.618 317.989, 506.927 310.926, 506.978 301.402 C 507.034 291.035, 513.357 270.006, 519.728 259 C 529.051 242.893, 542.711 229.470, 564.500 215.004 C 570.550 210.988, 579.959 204.731, 585.410 201.101 C 599.305 191.845, 610.187 181.070, 613.893 172.897 C 619.700 160.089, 620.412 146.408, 615.885 134.627 C 612.118 124.825, 600.992 114.378, 590.299 110.606 C 584.926 108.710, 572.118 107.923, 564.300 109.007 M 650.975 112.790 C 647.948 115.817, 647.060 117.577, 646.559 121.540 C 643.891 142.656, 642.033 149.874, 636.276 161.500 C 629.837 174.502, 617.358 189.639, 604.854 199.617 C 601.151 202.571, 592.235 208.823, 585.040 213.512 C 577.844 218.200, 569.154 224.080, 565.728 226.579 C 551.419 237.016, 539.338 251.416, 535.650 262.428 C 533.205 269.731, 533.418 284.369, 536.073 291.465 C 543.198 310.508, 564.167 321.263, 587.849 318.021 C 612.330 314.669, 634.524 300.590, 651.392 277.712 C 661.076 264.579, 665.413 253.963, 669.148 234.247 C 670.948 224.750, 670.974 223.747, 669.497 220.636 C 667.012 215.397, 662.235 213.793, 657.072 216.463 C 653.600 218.258, 653.422 218.711, 651.499 230.664 C 648.976 246.342, 640.778 263.492, 630.221 275.178 C 620.970 285.417, 606.287 294.579, 593.552 298.058 C 569.654 304.588, 550.321 293.552, 552.287 274.504 C 553.273 264.958, 559.603 258.465, 577.890 248.243 C 583.725 244.981, 593.025 239.791, 598.555 236.710 C 619.453 225.067, 632.539 214.754, 644.783 200.278 C 654.330 188.993, 659.409 180.358, 667.006 162.500 C 670.153 155.103, 673.693 139.468, 674.529 129.276 C 675.115 122.127, 674.932 120.490, 673.123 116.754 C 670.457 111.247, 666.648 109, 659.978 109 C 655.277 109, 654.392 109.373, 650.975 112.790"></path>

</svg>